REM DIRINDEX 1\2,1\3,1\4,1\5,1\6,1\7,1\8
REM DIRNAME folder01,folder02,folder03,folder04,folder05,folder06,folder07,folder08
TITLE ""
FILE "27_Ch6_RelaxingatHome_Behavier.mp3" MP3
  TRACK 01 AUDIO
    TITLE "0:"
    INDEX 01 00:00:00
  TRACK 02 AUDIO
    TITLE "8:cjc152_1467"
    INDEX 01 00:00:31
  TRACK 03 AUDIO
    TITLE "0:"
    INDEX 01 00:03:55
  TRACK 04 AUDIO
    TITLE "8:cjc152_1468"
    INDEX 01 00:04:40
  TRACK 05 AUDIO
    TITLE "0:"
    INDEX 01 00:06:02
  TRACK 06 AUDIO
    TITLE "3:cjc152_1469"
    INDEX 01 00:06:69
  TRACK 07 AUDIO
    TITLE "0:"
    INDEX 01 00:10:31
  TRACK 08 AUDIO
    TITLE "3:cjc152_1470"
    INDEX 01 00:11:23
  TRACK 09 AUDIO
    TITLE "0:"
    INDEX 01 00:15:07
  TRACK 10 AUDIO
    TITLE "3:cjc152_1471"
    INDEX 01 00:16:67
  TRACK 11 AUDIO
    TITLE "0:"
    INDEX 01 00:18:41
  TRACK 12 AUDIO
    TITLE "3:cjc152_1472"
    INDEX 01 00:19:36
  TRACK 13 AUDIO
    TITLE "0:"
    INDEX 01 00:21:27
  TRACK 14 AUDIO
    TITLE "3:cjc152_1473"
    INDEX 01 00:23:08
  TRACK 15 AUDIO
    TITLE "0:"
    INDEX 01 00:27:10
  TRACK 16 AUDIO
    TITLE "3:cjc152_1474"
    INDEX 01 00:28:02
  TRACK 17 AUDIO
    TITLE "0:"
    INDEX 01 00:31:57
  TRACK 18 AUDIO
    TITLE "3:cjc152_1475"
    INDEX 01 00:33:40
  TRACK 19 AUDIO
    TITLE "0:"
    INDEX 01 00:36:01
  TRACK 20 AUDIO
    TITLE "3:cjc152_1476"
    INDEX 01 00:36:70
  TRACK 21 AUDIO
    TITLE "0:"
    INDEX 01 00:40:09
  TRACK 22 AUDIO
    TITLE "3:cjc152_1477"
    INDEX 01 00:42:12
  TRACK 23 AUDIO
    TITLE "0:"
    INDEX 01 00:44:26
  TRACK 24 AUDIO
    TITLE "3:cjc152_1478"
    INDEX 01 00:45:18
  TRACK 25 AUDIO
    TITLE "0:"
    INDEX 01 00:48:20
  TRACK 26 AUDIO
    TITLE "3:cjc152_1479"
    INDEX 01 00:50:03
  TRACK 27 AUDIO
    TITLE "0:"
    INDEX 01 00:52:24
  TRACK 28 AUDIO
    TITLE "3:cjc152_1480"
    INDEX 01 00:53:19
  TRACK 29 AUDIO
    TITLE "0:"
    INDEX 01 00:56:10
  TRACK 30 AUDIO
    TITLE "3:cjc152_1481"
    INDEX 01 00:57:68
  TRACK 31 AUDIO
    TITLE "0:"
    INDEX 01 00:59:73
  TRACK 32 AUDIO
    TITLE "3:cjc152_1482"
    INDEX 01 01:00:66
  TRACK 33 AUDIO
    TITLE "0:"
    INDEX 01 01:03:16
  TRACK 34 AUDIO
    TITLE "3:cjc152_1483"
    INDEX 01 01:05:01
  TRACK 35 AUDIO
    TITLE "0:"
    INDEX 01 01:07:15
  TRACK 36 AUDIO
    TITLE "3:cjc152_1484"
    INDEX 01 01:08:09
  TRACK 37 AUDIO
    TITLE "0:"
    INDEX 01 01:10:49
  TRACK 38 AUDIO
    TITLE "3:cjc152_1485"
    INDEX 01 01:12:50
  TRACK 39 AUDIO
    TITLE "0:"
    INDEX 01 01:17:16
  TRACK 40 AUDIO
    TITLE "3:cjc152_1486"
    INDEX 01 01:18:09
  TRACK 41 AUDIO
    TITLE "0:"
    INDEX 01 01:22:19
  TRACK 42 AUDIO
    TITLE "3:cjc152_1487"
    INDEX 01 01:24:02
  TRACK 43 AUDIO
    TITLE "0:"
    INDEX 01 01:25:45
  TRACK 44 AUDIO
    TITLE "3:cjc152_1488"
    INDEX 01 01:26:38
  TRACK 45 AUDIO
    TITLE "0:"
    INDEX 01 01:28:37
  TRACK 46 AUDIO
    TITLE "3:cjc152_1489"
    INDEX 01 01:30:64
  TRACK 47 AUDIO
    TITLE "0:"
    INDEX 01 01:33:11
  TRACK 48 AUDIO
    TITLE "3:cjc152_1490"
    INDEX 01 01:34:01
  TRACK 49 AUDIO
    TITLE "0:"
    INDEX 01 01:36:27
  TRACK 50 AUDIO
    TITLE "3:cjc152_1491"
    INDEX 01 01:38:10
  TRACK 51 AUDIO
    TITLE "0:"
    INDEX 01 01:39:51
  TRACK 52 AUDIO
    TITLE "3:cjc152_1492"
    INDEX 01 01:40:44
  TRACK 53 AUDIO
    TITLE "0:"
    INDEX 01 01:42:61
  TRACK 54 AUDIO
    TITLE "3:cjc152_1493"
    INDEX 01 01:44:46
  TRACK 55 AUDIO
    TITLE "0:"
    INDEX 01 01:47:25
  TRACK 56 AUDIO
    TITLE "3:cjc152_1494"
    INDEX 01 01:48:16
  TRACK 57 AUDIO
    TITLE "0:"
    INDEX 01 01:51:50
  TRACK 58 AUDIO
    TITLE "3:cjc152_1495"
    INDEX 01 01:53:33
  TRACK 59 AUDIO
    TITLE "0:"
    INDEX 01 01:54:68
  TRACK 60 AUDIO
    TITLE "3:cjc152_1496"
    INDEX 01 01:55:62
  TRACK 61 AUDIO
    TITLE "0:"
    INDEX 01 01:57:72
  TRACK 62 AUDIO
    TITLE "3:cjc152_1497"
    INDEX 01 01:59:55
  TRACK 63 AUDIO
    TITLE "0:"
    INDEX 01 02:01:25
  TRACK 64 AUDIO
    TITLE "3:cjc152_1498"
    INDEX 01 02:02:44
  TRACK 65 AUDIO
    TITLE "0:"
    INDEX 01 02:04:21
  TRACK 66 AUDIO
    TITLE "3:cjc152_1499"
    INDEX 01 02:06:06
  TRACK 67 AUDIO
    TITLE "0:"
    INDEX 01 02:08:03
  TRACK 68 AUDIO
    TITLE "3:cjc152_1500"
    INDEX 01 02:08:72
  TRACK 69 AUDIO
    TITLE "0:"
    INDEX 01 02:11:27
  TRACK 70 AUDIO
    TITLE "3:cjc152_1501"
    INDEX 01 02:13:12
  TRACK 71 AUDIO
    TITLE "0:"
    INDEX 01 02:15:02
  TRACK 72 AUDIO
    TITLE "3:cjc152_1502"
    INDEX 01 02:15:68
  TRACK 73 AUDIO
    TITLE "0:"
    INDEX 01 02:17:57
  TRACK 74 AUDIO
    TITLE "3:cjc152_1503"
    INDEX 01 02:19:42
  TRACK 75 AUDIO
    TITLE "0:"
    INDEX 01 02:22:27
  TRACK 76 AUDIO
    TITLE "3:cjc152_1504"
    INDEX 01 02:23:21
  TRACK 77 AUDIO
    TITLE "0:"
    INDEX 01 02:26:60
  TRACK 78 AUDIO
    TITLE "3:cjc152_1505"
    INDEX 01 02:28:45
  TRACK 79 AUDIO
    TITLE "0:"
    INDEX 01 02:31:16
  TRACK 80 AUDIO
    TITLE "3:cjc152_1506"
    INDEX 01 02:32:08
  TRACK 81 AUDIO
    TITLE "0:"
    INDEX 01 02:36:47
  TRACK 82 AUDIO
    TITLE "3:cjc152_1507"
    INDEX 01 02:38:32
  TRACK 83 AUDIO
    TITLE "0:"
    INDEX 01 02:40:35
  TRACK 84 AUDIO
    TITLE "3:cjc152_1508"
    INDEX 01 02:41:26
  TRACK 85 AUDIO
    TITLE "0:"
    INDEX 01 02:43:51
  TRACK 86 AUDIO
    TITLE "3:cjc152_1509"
    INDEX 01 02:45:34
  TRACK 87 AUDIO
    TITLE "0:"
    INDEX 01 02:47:29
  TRACK 88 AUDIO
    TITLE "3:cjc152_1510"
    INDEX 01 02:48:23
  TRACK 89 AUDIO
    TITLE "0:"
    INDEX 01 02:51:27
  TRACK 90 AUDIO
    TITLE "3:cjc152_1511"
    INDEX 01 02:53:10
  TRACK 91 AUDIO
    TITLE "0:"
    INDEX 01 02:55:44
  TRACK 92 AUDIO
    TITLE "3:cjc152_1512"
    INDEX 01 02:56:36
  TRACK 93 AUDIO
    TITLE "0:"
    INDEX 01 03:00:00
  TRACK 94 AUDIO
    TITLE "3:cjc152_1513"
    INDEX 01 03:01:58
  TRACK 95 AUDIO
    TITLE "0:"
    INDEX 01 03:03:71
  TRACK 96 AUDIO
    TITLE "3:cjc152_1514"
    INDEX 01 03:04:55
  TRACK 97 AUDIO
    TITLE "0:"
    INDEX 01 03:06:48
  TRACK 98 AUDIO
    TITLE "3:cjc152_1515"
    INDEX 01 03:08:31
  TRACK 99 AUDIO
    TITLE "0:"
    INDEX 01 03:10:01
  TRACK 100 AUDIO
    TITLE "3:cjc152_1516"
    INDEX 01 03:10:65
  TRACK 101 AUDIO
    TITLE "0:"
    INDEX 01 03:12:66
  TRACK 102 AUDIO
    TITLE "3:cjc152_1517"
    INDEX 01 03:14:51
  TRACK 103 AUDIO
    TITLE "0:"
    INDEX 01 03:16:03
  TRACK 104 AUDIO
    TITLE "3:cjc152_1518"
    INDEX 01 03:16:70
  TRACK 105 AUDIO
    TITLE "0:"
    INDEX 01 03:18:55
  TRACK 106 AUDIO
    TITLE "3:cjc152_1519"
    INDEX 01 03:20:40
  TRACK 107 AUDIO
    TITLE "0:"
    INDEX 01 03:22:02
  TRACK 108 AUDIO
    TITLE "3:cjc152_1520"
    INDEX 01 03:22:70
  TRACK 109 AUDIO
    TITLE "0:"
    INDEX 01 03:24:63
  TRACK 110 AUDIO
    TITLE "3:cjc152_1521"
    INDEX 01 03:26:49
  TRACK 111 AUDIO
    TITLE "0:"
    INDEX 01 03:28:40
  TRACK 112 AUDIO
    TITLE "3:cjc152_1522"
    INDEX 01 03:29:33
  TRACK 113 AUDIO
    TITLE "0:"
    INDEX 01 03:31:36
  TRACK 114 AUDIO
    TITLE "3:cjc152_1523"
    INDEX 01 03:33:19
  TRACK 115 AUDIO
    TITLE "0:"
    INDEX 01 03:34:66
  TRACK 116 AUDIO
    TITLE "3:cjc152_1524"
    INDEX 01 03:35:57
  TRACK 117 AUDIO
    TITLE "0:"
    INDEX 01 03:37:43
  TRACK 118 AUDIO
    TITLE "3:cjc152_1525"
    INDEX 01 03:39:24
  TRACK 119 AUDIO
    TITLE "0:"
    INDEX 01 03:42:06
  TRACK 120 AUDIO
    TITLE "3:cjc152_1526"
    INDEX 01 03:43:00
  TRACK 121 AUDIO
    TITLE "0:"
    INDEX 01 03:46:28
  TRACK 122 AUDIO
    TITLE "3:cjc152_1527"
    INDEX 01 03:48:11
  TRACK 123 AUDIO
    TITLE "0:"
    INDEX 01 03:50:30
  TRACK 124 AUDIO
    TITLE "3:cjc152_1528"
    INDEX 01 03:51:19
  TRACK 125 AUDIO
    TITLE "0:"
    INDEX 01 03:53:73
  TRACK 126 AUDIO
    TITLE "3:cjc152_1529"
    INDEX 01 03:55:58
  TRACK 127 AUDIO
    TITLE "0:"
    INDEX 01 03:57:69
  TRACK 128 AUDIO
    TITLE "3:cjc152_1530"
    INDEX 01 03:58:62
  TRACK 129 AUDIO
    TITLE "0:"
    INDEX 01 04:00:57
  TRACK 130 AUDIO
    TITLE "3:cjc152_1531"
    INDEX 01 04:02:41
  TRACK 131 AUDIO
    TITLE "0:"
    INDEX 01 04:04:41
  TRACK 132 AUDIO
    TITLE "3:cjc152_1532"
    INDEX 01 04:05:35
  TRACK 133 AUDIO
    TITLE "0:"
    INDEX 01 04:08:33
  TRACK 134 AUDIO
    TITLE "3:cjc152_1533"
    INDEX 01 04:10:17
  TRACK 135 AUDIO
    TITLE "0:"
    INDEX 01 04:12:27
  TRACK 136 AUDIO
    TITLE "3:cjc152_1534"
    INDEX 01 04:13:21
  TRACK 137 AUDIO
    TITLE "0:"
    INDEX 01 04:15:73
